<svg xmlns="http://www.w3.org/2000/svg" viewBox="0 0 500 500"><path fill="#0A2A52" d="M245 173h7v1.7a566.2 566.2 0 0 0-.7 24.7c-.9 12.5-.9 12.5 3.3 24 4 4.1 8.4 7.2 13.3 10.2a1050.6 1050.6 0 0 0 12.6 9.6c3.9 3 7.7 6.2 11.5 9.3a1027 1027 0 0 0 17 13.6c14.1 11 14.1 11 17 13.9a212 212 0 0 1 .2 12.7 908.1 908.1 0 0 1 .2 15v2.4c.1 3.6.3 5.5 2.6 8.3l2 1.6c1.7 3.3 1.4 6.7.4 10.2-2.1 2.7-4.2 3.6-7.4 4.8-4 0-5.6-.7-8.9-3a13 13 0 0 1-2.8-9c.7-2 .7-2 3.2-4.2 4.5-5 3.6-12 3.6-18.4v-2.2c.2-9.7.2-9.7-3.5-18.4a36.6 36.6 0 0 0-8.7-5.8c-3.2-1.7-6-4-8.7-6.4l-3.5-2.7c-4-3-7.8-6.2-11.7-9.4a1461 1461 0 0 0-26.7-21.2l-2.5-1.9-1.8-1.4a973.9 973.9 0 0 0-.5 31.2c-1.2 15.4-1.2 15.4 4.5 28.9 2.8 2.4 5.8 4.2 9.2 5.9 3.2 1.7 5.9 4 8.7 6.4l1.9 1.5a1100.8 1100.8 0 0 1 19.5 15.7c1.7 1.5 1.7 1.5 3.9 2.6 2.3 2.3 2.3 4.1 2.3 7.4v23.7c0 3.5.2 5.3 2.5 8l2 1.7c1 3 1.1 4.5.4 7.6-1.8 3-3.4 4.6-6.4 6.4-3.5.5-5.5.2-8.8-1.2a9.8 9.8 0 0 1-4.2-6.8c.3-6 .3-6 2.4-9 1.6-1 1.6-1 3.6-1 2-19.4 2-19.4-4.2-36.7-3.2-2.8-6.9-5-10.7-7.1-3.2-1.8-6-4.2-9-6.5a479939742.5 479939742.5 0 0 1-11.3-8.9l-2.7-2.1-2.1-1.7a2705 2705 0 0 0-.5 42.5v3.5c-.3 5.7-.3 5.7 1.6 10.8 1.5 1.5 1.5 1.5 3.9 3.2 1.2 4 .4 7.3-1.5 11a13.3 13.3 0 0 1-10.5 3 12 12 0 0 1-6.3-4.8c-1-3-1.1-5-.7-8.2l2.5-2.3c4.2-4.9 3-11.5 2.8-17.6v-3.8l-.3-9.3a3731.7 3731.7 0 0 0-42 32.6c-2 1.4-2 1.4-5 3-6 3.6-6 3.6-9.7 9.3-1 5.2-.7 10.4-.6 15.7v4.8l.3 11.6 2 .9c2 1.1 2 1.1 3.3 3.4a13 13 0 0 1-.3 8.7c-2.9 3-4.8 4.8-9 5.6-4.2-.8-6.1-2.5-9-5.6-1.4-3.9-1.2-5.5.3-9.3 1.7-2.7 1.7-2.7 4.7-3.7l-.2-3.2a386.9 386.9 0 0 1-.9-17.2c-1-13.8-1-13.8 2.4-18.4 3.2-3.3 7-5.8 11-8.1a9983.3 9983.3 0 0 1 10.5-7.9l2.2-1.8 9.3-7.2a24640.5 24640.5 0 0 0 19.9-15.5l2-1.6 3.6-2.9c4-3.2 4-3.2 6.2-3.2l-1-70-14 11-8.7 6.8-3.3 2.7c-2 1.5-2 1.5-4.8 3.2-4.8 3.2-7.7 5.4-9.2 11.1-.4 4.4-.3 8.8-.2 13.3v4.6c0 3.8 0 7.5.2 11.3l2 .9c2 1.1 2 1.1 3.3 2.8 1 3.4.6 5.9-.3 9.3-2.2 3.2-3.6 3.9-7.4 5-4 0-5.5-.5-8.6-3a13.8 13.8 0 0 1-2-11c1.9-2.5 1.9-2.5 4-4h2l-.2-3.2a416.5 416.5 0 0 1-.8-17.2c-.9-13.8-.9-13.8 2.2-18.4A57 57 0 0 1 210 261a150 150 0 0 0 6.8-5.4c6-4.7 12-9.4 17.9-14.3l1.9-1.6 1.7-1.3c1.7-1.4 1.7-1.4 3.8-2.6 2.1-1.7 2.1-1.7 2.4-4.5v-3.2l.1-3.7v-4a1629.2 1629.2 0 0 1 .1-14.9l.1-11 .2-21.5Zm-46 142-1 4h4v-4h-3Zm122 8v4l4-1-1-3h-3Zm-74 36v4l4-1-1-3h-3Zm49 7-1 4h4l-1-4h-2Zm-114 42-1 4h4v-4h-3Z"/><path fill="#082A56" d="M217 81a78 78 0 0 1 24.5 9.1c16.9 8.4 33.6 19.5 40 38 2.4 8.2 2.8 18-.5 25.9-3.4 6.2-7 11.6-13.8 14-5.5 0-9.6-2.4-13.5-6.2-5.8-9.6-5-19.3-4.6-30.1.2-8.7 0-17-6.1-23.7l.5 2a61.8 61.8 0 0 1 .7 12.8c0 4.9-.7 9.3-1.7 14-1.7 8 .2 13.7 3.6 21.2.9 3 .9 3 .2 5.8-1.3 2.2-1.3 2.2-3.3 3.2-5.7.6-10.2.3-15-3a33 33 0 0 1-10.2-24c-.1-8.5.4-16 2.5-24.4 2.2-10.7 3.3-22.8-2-32.7L217 81Z"/><path fill="#092A54" d="M230 171c4 4.5 5.3 7 5 13l-1 1-5-.2a45.5 45.5 0 0 0-22.7 4.7A52.8 52.8 0 0 1 195 193c4.4 1 7.5 1 11.9-.3l3.1-.9 5.2-1.4a33 33 0 0 1 17.6-.7c4 2.4 5.9 4.1 7.2 8.7 0 4.6-1 6.1-4 9.6-5.9 5.9-12.2 8-20.4 8.4-13.2-.4-24.7-9.3-33.6-18.4-5.4-6.2-10-12.8-14-20l2 .5c11.2 1.9 21-2.3 30.8-7.4 8.3-4.1 21.4-6 29.2-.1Z"/><path fill="#092954" d="M296.7 170.7c14.7 8 23.7 19.8 33.3 33.3l-1 2-2-1a40.4 40.4 0 0 0-23.4 5l-6.2 2.7-2.8 1.3a32 32 0 0 1-22 .8 15.2 15.2 0 0 1-7.6-5.8c-.7-3-1.2-6-1-9l2-2 6 .6c6.8.7 11-.7 17-3.6a66 66 0 0 1 15-4 26 26 0 0 0-15.6 1c-8 2.4-17 4.4-24.9.9a12 12 0 0 1-5.3-8.3c1.2-5.6 4-9.8 8.9-13a33 33 0 0 1 29.6-.9Z"/><path fill="#0B294D" d="M271 112a36.7 36.7 0 0 1 12 24 34 34 0 0 1-8 27l-3 1v-2h2l-.6-2.8c-.4-3-.2-4.3.6-7.2v-6c0-2.7.5-5.3 1-8h2c1 3.1 1.1 5.4 1 8.7v5.3l2-1v-23h-2l-1-6h-2l-1-5h-2l-1-5Z"/><path fill="#152D4A" d="M245 173h7v1.8a1467.5 1467.5 0 0 0 .1 35.1v3.1c0 5.4 0 5.4 2.5 10 1.7 1.5 3.5 2.8 5.4 4-3.3 0-5-.4-8-2-2.9-4.8-2.2-10.2-2-15.6a1889670899.1 1889670899.1 0 0 0 1-35.4l-4 2v57l-2 1v-61Z"/><path fill="#0E2547" d="M294 320c2.7 1.6 4.8 2.8 7 5 .7 3 .9 5 .8 8v2.3a332.8 332.8 0 0 1-.2 14.5v4.5c0 3.6 0 5.3 2.4 8l2 1.7c1 3 1.1 4.5.4 7.6-1.8 3-3.4 4.6-6.4 6.4-3.3.3-3.3.3-6 0v-1l3.3-.5c3.7-1 3.7-1 4.9-3.3 1.4-3.6 2.4-6.4.8-10.2l-3-1c-1.6-3.1-1.1-6.4-1.1-9.9v-2.3a2588 2588 0 0 1 .1-24.8l-3.8 1.1c-2.2.7-2.2.7-4.2.9-3-2.4-3-2.4-5-5l4 1v2c3.2-1.7 3.2-1.7 4-5Z"/><path fill="#0E2A4C" d="M201 172v2h-3l-1 4h-5l-1 2c-6.1 2-6.1 2-9 2l-2 1v-2h-2l-3 8-7-10 2-1 3 1c7.7.8 16.1-1.7 22.7-5.6 2.3-1.4 2.3-1.4 5.3-1.4Z"/><path fill="#0F2A4B" d="M222 103h1v19l-3 1v6h1v16l1-1 1 3h-2v6c-6-10.8-3.6-26.4-.7-38 1-4 1.3-7.9 1.7-12Z"/><path fill="#112A4A" d="M292 327h2a1472.3 1472.3 0 0 1 1.3 30c.1 3.8 0 5.6-2.3 8.5l-2 1.5-1-1-1 6h2l1 4c-3-1-3-1-4.3-3.1a18 18 0 0 1 .3-9.9c1.4-2 1.4-2 3-3h2l-1-33Z"/><path fill="#102B4B" d="M245 324c2.4 3.5 2.2 5 2.2 9.2v7.5l-.1 3.8-.1 9.5-2 .9c-2.5 1.4-2.9 2.4-3.8 5.2l-.7 2.2-.5 1.7h-1c-.3-2.6-.3-2.6 0-6l2.5-2.3c4.3-5 3.3-11.9 3.3-18v-4l.2-9.7Z"/><path fill="#112947" d="m221 153 4 2v4h3l.8 2c1 2.3 1 2.3 4.2 3l5.7.6 3 .2 2.3.2 1-8c1.1 1.7 1.1 1.7 2 4-.8 2.7-.8 2.7-2 5-3.5 1.7-7.2 1.3-11 1-5.4-1.8-9-5.3-12-10-.7-2.2-.7-2.2-1-4Z"/><path fill="#072959" d="M226 171c2.4.4 2.4.4 5 2 1 3.3 1.6 6.6 2 10h-5v-5h-4v-2h2l-.6-2-.4-2 1-1Z"/><path fill="#072A57" d="M285 316c3.5.6 6 2.1 9 4l-1 5h-3v-2l-4-1v-2l-3-1 2-1v-2Z"/><path fill="#132B47" d="M316 317c0 3 0 3-1 5-.3 4-.3 5.5 2 9 2.7.6 2.7.6 5.6.7l3 .2 2.4.1-1 2a11.7 11.7 0 0 1-9.3-.3C315 332 315 332 313 329c-.6-7-.6-7 1.5-10.5l1.5-1.5Z"/><path fill="#072B59" d="m178 409 2 1v2c3.1 1.9 5.4 2.2 9 2l-2 4h-6l-2-4-1 3c-1.4-2.9-.6-5 0-8Z"/><path fill="#0D284A" d="M223 251v3h-2v2l-5 4c-2 1.8-2 1.8-3 4h-5c4.6-4.9 9.7-8.9 15-13Z"/><path fill="#102A4B" d="M241 107c3.1 4.7 3.2 8.5 3.1 13.9v2.1c0 3.8-.2 7.3-1.1 11h-1v-22h-2l1-5Z"/><path fill="#102846" d="M253 97c6.5 3.2 14.7 8.4 18 15h-3l-3.3-4.2c-2.8-3-6.3-5-9.7-7.3l-2-1.5v-2Z"/><path fill="#0E274C" d="M188 203a55 55 0 0 1 8 2v2h2l1 2h3l1 4c-3.9-1.4-7-3.2-10.3-5.6l-2.7-1.8-2-1.6v-1Z"/><path fill="#0E2947" d="M209 188a25.1 25.1 0 0 1-16 4l4-1v-2c4-1.3 7.9-1 12-1Z"/><path fill="#112846" d="M264 200c2.2 3.2 2.2 4.3 2 8l1.9.8c2.5 1.4 3 2.6 4.1 5.2-2.9-1.3-5-2.5-7-5-.5-2.3-.5-2.3-.7-4.7l-.2-2.4-.1-1.9Z"/><path fill="#0F274A" d="M223 183v1l-4.8 1.4-2.6.8-6.6 1.8c4.3-5.5 7.5-5.6 14-5Z"/><path fill="#0F2948" d="M278 154h2c-1.4 4-3.2 6.9-6 10h-2v-2h2l1-4h2l1-4Z"/><path fill="#122740" d="m217 81 9 2-1 2-5 1-3-5Z"/><path fill="#0F2745" d="m322 320 2 1v2l-3 1v2l3 2-3 1-2-2c.3-3.3.6-4.6 3-7Z"/><path fill="#132950" d="M297 172c3.8 1 6.5 2 9 5h-6v-3l-3-1v-1Z"/></svg>