<svg xmlns="http://www.w3.org/2000/svg" width="400" height="400"><g fill-rule="evenodd"><path fill="#050505" d="M199 1.4h2c.4-.1 0-.2-1-.2s-1.4 0-1 .2m51.1 258.5a86.7 86.7 0 0 1-6.2 10.8 134.3 134.3 0 0 1-27.7 29.2c-1.4.9-1.3 1.5.2 2.6 4.4 3.2 13.1 11.6 17.9 17.2a98.3 98.3 0 0 1 15.9 22.7c1.9 3.5 2.1 3.5 4 0a84.6 84.6 0 0 1 13.5-20l3.3-3.8c3.5-4.4 14.7-14.9 17.2-16.1 1.4-.8 1.3-1.2-1-3a154.2 154.2 0 0 1-26.4-28.2 90.4 90.4 0 0 1-6.6-11.4c-1.9-4.3-2-4.3-4 0m-108.3 13.5c-13.7 1.6-22.4 8.1-29 21.8-7.7 15.9-6.8 29.4 2.1 33.7 10 4.7 19.3.8 20.8-8.8 1.6-9.7 2.6-12.5 5.6-15a11 11 0 0 1 8.3-2.2c6.2.7 9.7 5.6 9.7 13.5.1 9.2 7.3 15.2 16.8 13.9 10.4-1.4 14.2-9.4 11.1-23.7-5-23.4-22-35.8-45.4-33.2m-17.4 126.2h1.1l-.6-.1c-.6 0-.9 0-.5.1m151.1 0h1.2l-.7-.1c-.6 0-.8 0-.5.1"/><path fill="#fb3434" d="m197 1.3-1.4.3a22.5 22.5 0 0 0-18.4 26.7 23.1 23.1 0 0 0 27 18 23.3 23.3 0 0 0 18.9-27.2l-.4-1.5c-1.5-7.2-8.8-14-16.7-15.8a107.7 107.7 0 0 0-9-.5M48.2 26.8a23.8 23.8 0 0 0-17.2 13c-2.3 5.2-2.6 13-.6 17.3 8.4 18.4 33.7 19.4 42.3 1.6 8-16.6-6-34.8-24.5-31.9m295.4.2a22.4 22.4 0 0 0-17.2 29c7.3 21.4 38.6 20.3 44.4-1.6a22.8 22.8 0 0 0-8.6-23.2c-3.7-3.4-12.9-5.4-18.7-4M198 71.3a316.4 316.4 0 0 1-5 5.7 1318.3 1318.3 0 0 1-55.8 62.5 518.7 518.7 0 0 1-8.4 9.4c-1 1.3-1.7.9-8-3.8A3320.5 3320.5 0 0 0 89.9 122a8783.4 8783.4 0 0 0-28.5-21c-5.8-4.3-6.4-4.5-7.7-3-1.3 1.7-1.3 1.2-.7 35a11108.9 11108.9 0 0 1 1.1 75.5 8251.8 8251.8 0 0 1 .6 37.5l.2 7.6h-.7l-5.5.9-8.5 1.3c-12.7 1.6-17.5 3.4-20.4 7.8-1.9 2.7-2 4.7-1 15.6a1155.2 1155.2 0 0 1 2.2 24.1 6530 6530 0 0 1 3.4 36.9c1 10.2 2.7 13.4 8.2 14.7 2 .5 10.7 1 13.1.8 1.2-.1 10.5.4 10.6.6l.4 20.5c.3 15.4 1.8 19.2 8.3 21.3 3 .8 4 .9 24.7 1a9880 9880 0 0 0 221.7 0c20.7-.1 21.8-.2 24.7-1 6.6-2 8-5.9 8.4-21.3l.3-20.5c.2-.2 9.5-.7 10.6-.6 2.5.2 11.1-.3 13.1-.8 5.5-1.3 7.3-4.5 8.2-14.7a932.8 932.8 0 0 1 2.3-24.6 6530 6530 0 0 1 3.3-36.4c1-10.9.9-12.9-1-15.6-2.8-4.4-7.7-6.2-20.3-7.8a227.6 227.6 0 0 1-14-2.2h-.7l.1-7.6a3776 3776 0 0 0 .9-56.2 12211 12211 0 0 1 .8-56.8c.6-33.8.6-33.3-.7-35-1.3-1.5-1.9-1.3-7.7 3a8676.7 8676.7 0 0 1-43.3 32l-16 11.9c-6.3 4.7-7 5-8 3.8-.3-.6-1-1.3-4.4-5a518.7 518.7 0 0 1-7.1-7.8 671.7 671.7 0 0 1-14.4-15.7 1821.6 1821.6 0 0 1-41.6-47.1c-2-2.4-4.7-3-6.8-1.8m-36.5 161.8c.2.2.4 1.2.5 2.2.8 7 4.1 11.6 9.5 12.7 3 .7 55 .7 58 0 5.3-1 8.7-5.6 9.4-12.7.3-2.8-.3-2.6 9-2.4 10.8.2 29.7 1 36.2 1.6 15.5 1.3 25 9.5 29 25.4 1.2 5 1.3 1.6-1.3 65.4-.9 20.2-1.2 22.7-3.7 27.7-3.2 6.1-8.3 10-15.8 12l-2.8.6H111.5l-2.8-.7A22.8 22.8 0 0 1 93 353c-2.6-4.9-2.9-7.4-3.7-27.6-2.7-64.5-2.6-60.2-1.3-65.3 4.4-17.6 13.9-24.8 33.6-25.8l11.4-.6c5.6-.3 17.9-.7 24.9-.8 2.5 0 3.5 0 3.7.3m-14.4 39.9h2.6l-1.4-.1h-1.2m119.7 6.2.9 1 1 .8-1-1c-.7-.8-1-1-1-.8m-32.1 2.9-.8.9.9-.8 1-1c0-.2-.3 0-1.1.9m-60.4.6c.5.6 1 1 1.1 1l-.8-1-1.1-1 .8 1m2.8 2.8a16 16 0 0 0 1.4 1.4c.2 0 0-.3-1.3-1.5l-1.3-1.3 1.2 1.4m-161.3 5.7c.3 3.7.5 4 .3.7 0-1.6-.3-3-.4-3.1v2.4m369.6-2.4-.2 3c-.2 3.5 0 3.1.3-.6.2-2.6.2-2.8 0-2.4M278 291.4a12 12 0 0 0 1.6 1.5l-1.3-1.5a12 12 0 0 0-1.5-1.4l1.2 1.4m-53.2 1-1.2 1.3 1.4-1.3 1.2-1.3-1.4 1.3m-117.4 21.3c0 .7 0 1 .1.7V313v.6m121.3.1.9 1 1 .8-1-1c-.7-.8-1-1-1-.8m-69.6 2c0 1 0 1.4.2.8v-1.8c-.1-.5-.2-.1-.2 1m29.2 0v.8c.2-.5.2-1.2 0-1.7v1m84 1-1.1 1.2 1.2-1c1.1-1.1 1.3-1.4 1.1-1.4l-1.2 1.2m-101.2 13.6h1l-.5-.1h-.5"/><path fill="#fbfbfb" d="M146.6 233.2a630.7 630.7 0 0 0-25 1c-19.7 1-29.2 8.3-33.6 25.9-1.3 5.1-1.4.8 1.3 65.3.8 20.2 1.1 22.7 3.7 27.7 3.1 6.1 8.3 10 15.7 12l2.8.6h178.1l2.8-.7a22.8 22.8 0 0 0 15.8-12c2.5-4.9 2.8-7.4 3.7-27.6 2.6-63.8 2.5-60.3 1.2-65.4-4-15.9-13.4-24.1-28.9-25.4A887 887 0 0 0 248 233c-9.3-.2-8.7-.4-9 2.4-.7 7-4 11.6-9.4 12.7-3 .7-55 .7-58 0-5.4-1-8.7-5.6-9.5-12.7-.3-3 1.2-2.7-15.5-2.2m108.4 28a84.7 84.7 0 0 0 15.2 21.7c3.4 4 11.2 11.7 15 14.9 4.5 3.6 4.6 3.8 2.8 4.7a142.6 142.6 0 0 0-22.3 22.4c-3.8 4.5-8.9 12.3-11.8 18-1.4 2.7-1.9 2.8-3.2.5l-3-5.3c-6.2-11-20-26.9-30.5-35-2.5-1.8-2.5-2.2-.5-3.5a125.3 125.3 0 0 0 19.9-19.6c3.3-3 9.8-12.7 13.3-19.8 2.3-4.6 2.2-4.6 5.1 1m-98 12.5c17.4 3.6 29.3 18.4 31.3 39 1 11.4-4.2 17.9-14.7 17.9-8.7 0-13.8-5.4-14.4-15.3-.7-9.7-6.6-14.5-14.4-11.8-5.2 1.7-7.2 5.3-8.7 15.6-.6 4.3-1.3 6-3 7.8-6 6.5-19.7 4.6-23.7-3.3-5-10 1.3-30.9 12.6-41.8 7.5-7.2 22.4-10.6 35-8"/></g></svg>